<svg xmlns="http://www.w3.org/2000/svg" width="30" height="30" viewBox="0 0 30 30" fill="none">
  <path d="M15 12.2725V18.0816H23.0727C22.7182 19.9497 21.6545 21.5316 20.059 22.5952L24.9272 26.3725C27.7635 23.7544 29.3999 19.909 29.3999 15.3408C29.3999 14.2772 29.3045 13.2544 29.1272 12.2726L15 12.2725Z" fill="#4285F4"/>
  <path d="M6.59376 17.8555L5.4958 18.6959L1.60938 21.7232C4.07755 26.6186 9.13627 30.0004 14.9999 30.0004C19.0498 30.0004 22.4452 28.6641 24.927 26.3732L20.0589 22.5959C18.7225 23.4959 17.018 24.0414 14.9999 24.0414C11.0999 24.0414 7.78634 21.4096 6.59989 17.8641L6.59376 17.8555Z" fill="#34A853"/>
  <path d="M1.60897 8.27734C0.586302 10.2954 0 12.5727 0 15C0 17.4272 0.586302 19.7045 1.60897 21.7226C1.60897 21.7362 6.59997 17.8499 6.59997 17.8499C6.29997 16.9499 6.12265 15.9954 6.12265 14.9998C6.12265 14.0042 6.29997 13.0498 6.59997 12.1498L1.60897 8.27734Z" fill="#FBBC05"/>
  <path d="M15.0002 5.97272C17.2093 5.97272 19.1729 6.73634 20.7411 8.20909L25.0365 3.91369C22.4319 1.48646 19.0502 0 15.0002 0C9.13657 0 4.07755 3.36818 1.60938 8.27728L6.60022 12.15C7.78651 8.60452 11.1002 5.97272 15.0002 5.97272Z" fill="#EA4335"/>
</svg>