<svg xmlns="http://www.w3.org/2000/svg" width="14" height="21" viewBox="0 0 14 21" fill="none">
  <path d="M12.9992 7.20299C12.9992 3.77782 10.3159 1 7.003 1C3.69013 1 1.0017 3.77782 1.0017 7.20299C1.0017 7.20299 0.984824 7.49438 1.05739 8.04575C1.07765 8.1836 1.0979 8.3197 1.12321 8.45405C1.45906 10.2617 2.6691 13.9451 7.00131 19C11.3335 13.9451 12.5436 10.2617 12.876 8.45405C12.903 8.3197 12.925 8.1836 12.9419 8.04575C13.0178 7.49438 12.9975 7.20299 12.9975 7.20299H12.9992Z" stroke="#5B5B5B" stroke-width="2" stroke-miterlimit="10"/>
  <path d="M7.00179 10.2444C8.64129 10.2444 9.97037 8.87025 9.97037 7.17517C9.97037 5.48009 8.64129 4.10596 7.00179 4.10596C5.36228 4.10596 4.0332 5.48009 4.0332 7.17517C4.0332 8.87025 5.36228 10.2444 7.00179 10.2444Z" stroke="#5B5B5B" stroke-width="2" stroke-miterlimit="10"/>
</svg>