<svg xmlns="http://www.w3.org/2000/svg" width="148" height="40" viewBox="0 0 148 40" fill="none">
  <g clip-path="url(#clip0_737_9445)">
    <path d="M4.93843 8.23096H3.58789V16.3936H4.93843V8.23096Z" fill="#7400FF"/>
    <path d="M4.93843 8.23096H3.58789V13.9894H4.93843V8.23096Z" fill="url(#paint0_linear_737_9445)"/>
    <path d="M5.55626 19.7478H2.99023L3.20246 16.3936H5.34403L5.55626 19.7478Z" fill="#7400FF"/>
    <path d="M20.2779 9.41357H10.3418V39.5824H20.2779V9.41357Z" fill="#7400FF"/>
    <path d="M20.2779 10.2471H10.3418V17.7311H20.2779V10.2471Z" fill="url(#paint1_linear_737_9445)"/>
    <path d="M0 3.57757L15.3383 0.0488281L30.5994 3.57757L27.8019 10.2473H2.72038L0 3.57757Z" fill="#7400FF"/>
    <path d="M49.5261 10.2861C47.5774 10.2861 45.841 10.6933 44.3169 11.5076C42.812 12.3219 41.5965 13.3689 40.709 14.6874V24.0133C40.709 22.3653 41.1334 21.0469 42.0016 20.1162C42.8506 19.1662 44.0468 18.7008 45.5516 18.7008C47.0565 18.7008 48.137 19.1662 49.0052 20.1162C49.8734 21.0663 50.2978 22.3653 50.2978 24.0133V39.6019H60.3883V22.6755C60.3883 18.8753 59.4043 15.8701 57.4557 13.6404C55.5071 11.4107 52.8446 10.3055 49.5261 10.3055V10.2861Z" fill="#5000BC"/>
    <path d="M40.7096 10.5381H30.6191V39.5824H40.7096V24.0132V14.6873V10.5381Z" fill="#5000BC"/>
    <path d="M87.1865 11.9921C84.9098 10.79 82.3245 10.189 79.4305 10.189C76.5365 10.189 73.9512 10.79 71.6745 11.9921C69.3979 13.1942 67.5843 14.9198 66.2724 17.1689C64.9604 19.418 64.2852 22.0355 64.2852 25.0407C64.2852 28.046 64.9411 30.7216 66.2338 32.9513C67.5458 35.2004 69.34 36.926 71.6167 38.1281C73.8933 39.3302 76.4786 39.9312 79.3726 39.9312C82.2666 39.9312 84.852 39.3302 87.1479 38.1281C89.4438 36.926 91.2574 35.181 92.5886 32.9319C93.9006 30.6828 94.5759 28.046 94.5759 25.0407C94.5759 22.0355 93.9199 19.418 92.5886 17.1689C91.2767 14.9198 89.4631 13.1942 87.1865 11.9921ZM82.9033 29.5583C81.958 30.6053 80.781 31.1288 79.3726 31.1288C77.9642 31.1288 76.8066 30.6053 75.9191 29.5777C75.0316 28.5501 74.5879 27.0184 74.5879 25.0213C74.5879 23.0243 75.0509 21.5507 75.977 20.5231C76.9031 19.4955 78.0607 18.972 79.4305 18.972C80.8003 18.972 81.958 19.4955 82.9033 20.5231C83.8487 21.5507 84.3118 23.0631 84.3118 25.0213C84.3118 26.9796 83.8294 28.4919 82.9033 29.5583Z" fill="#5000BC"/>
    <path d="M147.999 24.7305C147.999 21.764 147.382 19.1853 146.147 16.9944C144.912 14.8035 143.195 13.1167 140.996 11.9533C138.796 10.79 136.269 10.189 133.433 10.189C130.596 10.189 127.992 10.79 125.792 11.9921C123.574 13.1942 121.856 14.9198 120.622 17.1495C119.387 19.3792 118.77 21.9967 118.77 25.0407C118.77 28.0847 119.387 30.7216 120.641 32.9513C121.895 35.2004 123.631 36.926 125.85 38.1281C128.069 39.3302 130.596 39.9312 133.452 39.9312C135.825 39.9312 137.986 39.4853 139.934 38.5934C141.883 37.7015 143.523 36.4607 144.796 34.8902C146.089 33.3197 146.957 31.5359 147.401 29.5389H136.635C135.921 31.0512 134.706 31.8268 133.027 31.8268C131.831 31.8268 130.828 31.439 130.056 30.6634C129.284 29.8879 128.841 28.7052 128.744 27.1153H147.845C147.941 26.3204 147.999 25.5254 147.999 24.7305ZM128.783 22.1906C129.014 20.8721 129.535 19.8833 130.326 19.2241C131.117 18.5455 132.121 18.2159 133.375 18.2159C134.629 18.2159 135.632 18.5649 136.462 19.2823C137.291 19.9803 137.696 20.9691 137.696 22.21H128.783V22.1906Z" fill="#5000BC"/>
    <path d="M110.455 3.5H100.307V10.5381H110.455V3.5Z" fill="#5000BC"/>
    <path d="M112.81 30.935C111.942 30.935 111.343 30.7605 110.977 30.4115C110.61 30.0625 110.437 29.5002 110.437 28.7053V18.9722H115.684V10.5381H96.7383V18.9722H100.288V28.5502C100.288 35.8985 103.973 39.5824 111.363 39.5824H115.742V30.935H112.81Z" fill="#5000BC"/>
  </g>
  <defs>
    <linearGradient id="paint0_linear_737_9445" x1="4.26316" y1="12.6322" x2="4.26316" y2="9.51061" gradientUnits="userSpaceOnUse">
      <stop stop-opacity="0"/>
      <stop offset="1" stop-opacity="0.3"/>
    </linearGradient>
    <linearGradient id="paint1_linear_737_9445" x1="15.3002" y1="17.3239" x2="15.3002" y2="10.8481" gradientUnits="userSpaceOnUse">
      <stop stop-opacity="0"/>
      <stop offset="1" stop-opacity="0.3"/>
    </linearGradient>
    <clipPath id="clip0_737_9445">
      <rect width="148" height="39.902" fill="white" transform="translate(0 0.0488281)"/>
    </clipPath>
  </defs>
</svg>