<svg xmlns="http://www.w3.org/2000/svg" width="136" height="30" viewBox="0 0 146 40" fill="none">
  <g clip-path="url(#clip0_505_5222)">
    <path d="M4.87331 8.20215H3.54102V16.3849H4.87331V8.20215Z" fill="#7400FF"/>
    <path d="M4.87331 8.20215H3.54102V13.9747H4.87331V8.20215Z" fill="url(#paint0_linear_505_5222)"/>
    <path d="M5.48057 19.7473H2.94922L3.15858 16.3848H5.27121L5.48057 19.7473Z" fill="#7400FF"/>
    <path d="M20.003 9.3877H10.2012V39.6307H20.003V9.3877Z" fill="#7400FF"/>
    <path d="M20.003 10.2236H10.2012V17.7261H20.003V10.2236Z" fill="url(#paint1_linear_505_5222)"/>
    <path d="M0 3.53742L15.131 0L30.1859 3.53742L27.4262 10.2235H2.68361L0 3.53742Z" fill="#7400FF"/>
    <path d="M48.8562 10.2627C46.9339 10.2627 45.2209 10.6709 43.7173 11.4872C42.2328 12.3035 41.0337 13.3531 40.1582 14.6747V24.0236C40.1582 22.3715 40.5769 21.0499 41.4334 20.1169C42.2708 19.1645 43.4509 18.6981 44.9354 18.6981C46.42 18.6981 47.4858 19.1645 48.3423 20.1169C49.1987 21.0693 49.6175 22.3715 49.6175 24.0236V39.6504H59.5716V22.6825C59.5716 18.873 58.6009 15.8604 56.6786 13.6252C54.7563 11.39 52.1298 10.2821 48.8562 10.2821V10.2627Z" fill="#5000BC"/>
    <path d="M40.1592 10.5146H30.2051V39.6303H40.1592V24.0229V14.674V10.5146Z" fill="#5000BC"/>
    <path d="M86.0098 11.9726C83.7639 10.7676 81.2136 10.165 78.3587 10.165C75.5037 10.165 72.9534 10.7676 70.7075 11.9726C68.4616 13.1777 66.6726 14.9075 65.3783 17.1621C64.0841 19.4167 63.418 22.0406 63.418 25.0533C63.418 28.0659 64.0651 30.7481 65.3403 32.9833C66.6345 35.2379 68.4045 36.9678 70.6504 38.1728C72.8963 39.3779 75.4466 39.9804 78.3016 39.9804C81.1565 39.9804 83.7068 39.3779 85.9717 38.1728C88.2366 36.9678 90.0257 35.2185 91.339 32.9639C92.6332 30.7093 93.2993 28.0659 93.2993 25.0533C93.2993 22.0406 92.6522 19.4167 91.339 17.1621C90.0448 14.9075 88.2557 13.1777 86.0098 11.9726ZM81.7845 29.5819C80.8519 30.6315 79.6909 31.1563 78.3016 31.1563C76.9122 31.1563 75.7702 30.6315 74.8947 29.6014C74.0192 28.5713 73.5814 27.0358 73.5814 25.0338C73.5814 23.0319 74.0382 21.5547 74.9518 20.5246C75.8654 19.4945 77.0073 18.9697 78.3587 18.9697C79.71 18.9697 80.8519 19.4945 81.7845 20.5246C82.7172 21.5547 83.1739 23.0708 83.1739 25.0338C83.1739 26.9969 82.6981 28.5129 81.7845 29.5819Z" fill="#5000BC"/>
    <path d="M146.001 24.7423C146.001 21.7685 145.392 19.1835 144.173 16.9872C142.955 14.7909 141.261 13.0999 139.092 11.9337C136.922 10.7676 134.429 10.165 131.631 10.165C128.833 10.165 126.264 10.7676 124.094 11.9726C121.905 13.1777 120.211 14.9075 118.993 17.1427C117.775 19.3779 117.166 22.0018 117.166 25.0533C117.166 28.1048 117.775 30.7481 119.012 32.9833C120.249 35.2379 121.962 36.9678 124.151 38.1728C126.34 39.3779 128.833 39.9804 131.65 39.9804C133.991 39.9804 136.123 39.5334 138.045 38.6393C139.967 37.7452 141.585 36.5013 142.841 34.9269C144.116 33.3526 144.973 31.5645 145.411 29.5625H134.79C134.086 31.0785 132.887 31.856 131.231 31.856C130.051 31.856 129.061 31.4673 128.3 30.6898C127.539 29.9124 127.101 28.7267 127.006 27.133H145.848C145.943 26.3361 146.001 25.5392 146.001 24.7423ZM127.044 22.1961C127.272 20.8745 127.786 19.8832 128.567 19.2224C129.347 18.5421 130.337 18.2117 131.574 18.2117C132.811 18.2117 133.801 18.5615 134.619 19.2807C135.437 19.9804 135.837 20.9716 135.837 22.2156H127.044V22.1961Z" fill="#5000BC"/>
    <path d="M108.962 3.45996H98.9512V10.5154H108.962V3.45996Z" fill="#5000BC"/>
    <path d="M111.284 30.9617C110.427 30.9617 109.837 30.7868 109.476 30.4369C109.114 30.087 108.943 29.5234 108.943 28.7265V18.9695H114.12V10.5146H95.4297V18.9695H98.9317V28.571C98.9317 35.9374 102.567 39.6303 109.856 39.6303H114.177V30.9617H111.284Z" fill="#5000BC"/>
  </g>
  <defs>
    <linearGradient id="paint0_linear_505_5222" x1="4.20716" y1="12.6142" x2="4.20716" y2="9.48495" gradientUnits="userSpaceOnUse">
      <stop stop-opacity="0"/>
      <stop offset="1" stop-opacity="0.3"/>
    </linearGradient>
    <linearGradient id="paint1_linear_505_5222" x1="15.0926" y1="17.3179" x2="15.0926" y2="10.8262" gradientUnits="userSpaceOnUse">
      <stop stop-opacity="0"/>
      <stop offset="1" stop-opacity="0.3"/>
    </linearGradient>
    <clipPath id="clip0_505_5222">
      <rect width="146" height="40" fill="white"/>
    </clipPath>
  </defs>
</svg>