<svg width="110" height="30" viewBox="0 0 110 30" fill="none" xmlns="http://www.w3.org/2000/svg">
<g clip-path="url(#clip0_521_7237)">
<path d="M3.67175 6.15137H2.66797V12.2884H3.67175V6.15137Z" fill="#7400FF"/>
<path d="M3.67175 6.15137H2.66797V10.4808H3.67175V6.15137Z" fill="url(#paint0_linear_521_7237)"/>
<path d="M4.12984 14.8104H2.22266L2.38039 12.2886H3.9721L4.12984 14.8104Z" fill="#7400FF"/>
<path d="M15.0705 7.04102H7.68555V29.7232H15.0705V7.04102Z" fill="#7400FF"/>
<path d="M15.0705 7.66748H7.68555V13.2943H15.0705V7.66748Z" fill="url(#paint1_linear_521_7237)"/>
<path d="M0 2.65306L11.4001 0L22.7428 2.65306L20.6635 7.66764H2.0219L0 2.65306Z" fill="#7400FF"/>
<path d="M36.8091 7.69678C35.3608 7.69678 34.0702 8.0029 32.9374 8.61514C31.8189 9.22739 30.9155 10.0146 30.2559 11.0058V18.0175C30.2559 16.7784 30.5713 15.7872 31.2166 15.0874C31.8476 14.3732 32.7366 14.0233 33.8551 14.0233C34.9736 14.0233 35.7767 14.3732 36.4219 15.0874C37.0672 15.8017 37.3827 16.7784 37.3827 18.0175V29.7376H44.8824V17.0116C44.8824 14.1545 44.151 11.895 42.7027 10.2186C41.2544 8.54226 39.2755 7.71135 36.8091 7.71135V7.69678Z" fill="#5000BC"/>
<path d="M30.2575 7.88623H22.7578V29.723H30.2575V18.0174V11.0058V7.88623Z" fill="#5000BC"/>
<path d="M64.8005 8.97971C63.1085 8.07592 61.1869 7.62402 59.036 7.62402C56.885 7.62402 54.9635 8.07592 53.2714 8.97971C51.5793 9.8835 50.2314 11.1809 49.2563 12.8718C48.2812 14.5628 47.7793 16.5307 47.7793 18.7902C47.7793 21.0497 48.2669 23.0613 49.2276 24.7377C50.2027 26.4287 51.5363 27.7261 53.2284 28.6299C54.9205 29.5336 56.842 29.9855 58.993 29.9855C61.1439 29.9855 63.0654 29.5336 64.7719 28.6299C66.4783 27.7261 67.8262 26.4141 68.8157 24.7231C69.7908 23.0322 70.2927 21.0497 70.2927 18.7902C70.2927 16.5307 69.8051 14.5628 68.8157 12.8718C67.8406 11.1809 66.4926 9.8835 64.8005 8.97971ZM61.6171 22.1867C60.9145 22.9739 60.0398 23.3675 58.993 23.3675C57.9462 23.3675 57.0858 22.9739 56.4261 22.2013C55.7665 21.4287 55.4367 20.2771 55.4367 18.7756C55.4367 17.2742 55.7809 16.1663 56.4692 15.3937C57.1575 14.6211 58.0179 14.2275 59.036 14.2275C60.0541 14.2275 60.9145 14.6211 61.6171 15.3937C62.3198 16.1663 62.6639 17.3033 62.6639 18.7756C62.6639 20.2479 62.3054 21.385 61.6171 22.1867Z" fill="#5000BC"/>
<path d="M110 18.557C110 16.3266 109.541 14.3879 108.623 12.7406C107.706 11.0934 106.429 9.82519 104.795 8.95055C103.16 8.07592 101.282 7.62402 99.1736 7.62402C97.0656 7.62402 95.1298 8.07592 93.495 8.97971C91.846 9.8835 90.5697 11.1809 89.652 12.8573C88.7343 14.5336 88.2754 16.5016 88.2754 18.7902C88.2754 21.0788 88.7343 23.0613 89.6663 24.7377C90.5984 26.4287 91.889 27.7261 93.5381 28.6299C95.1871 29.5336 97.0656 29.9855 99.1879 29.9855C100.952 29.9855 102.558 29.6503 104.006 28.9797C105.454 28.3092 106.673 27.3762 107.62 26.1955C108.58 25.0147 109.226 23.6736 109.556 22.1721H101.554C101.023 23.3092 100.12 23.8922 98.8724 23.8922C97.9834 23.8922 97.2377 23.6007 96.6641 23.0176C96.0905 22.4345 95.7607 21.5453 95.689 20.35H109.885C109.957 19.7523 110 19.1546 110 18.557ZM95.7177 16.6473C95.8898 15.6561 96.277 14.9127 96.8649 14.417C97.4528 13.9068 98.1985 13.659 99.1306 13.659C100.063 13.659 100.808 13.9214 101.425 14.4608C102.042 14.9855 102.343 15.729 102.343 16.6619H95.7177V16.6473Z" fill="#5000BC"/>
<path d="M82.0954 2.59473H74.5527V7.88627H82.0954V2.59473Z" fill="#5000BC"/>
<path d="M83.8434 23.2215C83.1981 23.2215 82.7536 23.0903 82.4812 22.8279C82.2087 22.5655 82.0796 22.1428 82.0796 21.5451V14.2273H85.98V7.88623H71.8984V14.2273H74.5369V21.4285C74.5369 26.9533 77.2758 29.723 82.7679 29.723H86.0231V23.2215H83.8434Z" fill="#5000BC"/>
</g>
<defs>
<linearGradient id="paint0_linear_521_7237" x1="3.16986" y1="9.46041" x2="3.16986" y2="7.11347" gradientUnits="userSpaceOnUse">
<stop stop-opacity="0"/>
<stop offset="1" stop-opacity="0.3"/>
</linearGradient>
<linearGradient id="paint1_linear_521_7237" x1="11.3709" y1="12.9882" x2="11.3709" y2="8.11938" gradientUnits="userSpaceOnUse">
<stop stop-opacity="0"/>
<stop offset="1" stop-opacity="0.3"/>
</linearGradient>
<clipPath id="clip0_521_7237">
<rect width="110" height="30" fill="white"/>
</clipPath>
</defs>
</svg>
