<svg width="25" height="24" viewBox="0 0 25 24" fill="none" xmlns="http://www.w3.org/2000/svg">
<path d="M19.014 8.89221C19.014 5.08647 15.8834 2 12.0184 2C8.15338 2 5.01688 5.08647 5.01688 8.89221C5.01688 8.89221 4.99719 9.21597 5.08185 9.82862C5.10548 9.98178 5.12911 10.133 5.15864 10.2823C5.55046 12.2908 6.96218 16.3835 12.0164 22C17.0707 16.3835 18.4824 12.2908 18.8703 10.2823C18.9018 10.133 18.9274 9.98178 18.9471 9.82862C19.0357 9.21597 19.012 8.89221 19.012 8.89221H19.014Z" stroke="#A6A6A6" stroke-width="2" stroke-miterlimit="10"/>
<path d="M11.9165 12.1055C13.5191 12.1055 14.8182 10.7623 14.8182 9.10547C14.8182 7.44861 13.5191 6.10547 11.9165 6.10547C10.314 6.10547 9.01489 7.44861 9.01489 9.10547C9.01489 10.7623 10.314 12.1055 11.9165 12.1055Z" stroke="#A6A6A6" stroke-width="2" stroke-miterlimit="10"/>
</svg>
