<svg width="20" height="20" viewBox="0 0 24 24" fill="none" xmlns="http://www.w3.org/2000/svg">
<path d="M17.9992 9.20299C17.9992 5.77782 15.3159 3 12.003 3C8.69013 3 6.0017 5.77782 6.0017 9.20299C6.0017 9.20299 5.98482 9.49438 6.05739 10.0458C6.07765 10.1836 6.0979 10.3197 6.12321 10.4541C6.45906 12.2617 7.6691 15.9451 12.0013 21C16.3335 15.9451 17.5436 12.2617 17.876 10.4541C17.903 10.3197 17.925 10.1836 17.9419 10.0458C18.0178 9.49438 17.9975 9.20299 17.9975 9.20299H17.9992Z" stroke="#5B5B5B" stroke-width="2" stroke-miterlimit="10"/>
<path d="M12.0018 12.2444C13.6413 12.2444 14.9704 10.8702 14.9704 9.17517C14.9704 7.48009 13.6413 6.10596 12.0018 6.10596C10.3623 6.10596 9.0332 7.48009 9.0332 9.17517C9.0332 10.8702 10.3623 12.2444 12.0018 12.2444Z" stroke="#5B5B5B" stroke-width="2" stroke-miterlimit="10"/>
</svg>
