<svg width="50" height="50" viewBox="0 0 78 78" fill="none" xmlns="http://www.w3.org/2000/svg">
<path fill-rule="evenodd" clip-rule="evenodd" d="M10.5336 55.7036C17.7098 50.2515 27.8123 46.4671 39.0024 46.4671C50.1929 46.4671 60.2927 50.2518 67.4661 55.7042C70.3475 50.8045 72 45.0952 72 39C72 20.7746 57.2254 6 39 6C20.7746 6 6 20.7746 6 39C6 45.095 7.65236 50.804 10.5336 55.7036ZM78 39C78 60.5391 60.5391 78 39 78C17.4609 78 0 60.5391 0 39C0 17.4609 17.4609 0 39 0C60.5391 0 78 17.4609 78 39Z" fill="#5B5B5B"/>
<circle cx="39.0015" cy="26.5542" r="12.4468" fill="#5B5B5B"/>
</svg>
