<svg xmlns="http://www.w3.org/2000/svg" width="100%" height="100%" viewBox="0 0 42 43" fill="none">
  <path d="M8.14258 29.7402C12.3261 34.8419 23.1543 41.9842 32.9997 29.7402H8.14258Z" fill="#50525B"/>
  <path d="M21 36.5C29.2843 36.5 36 29.7843 36 21.5C36 13.2157 29.2843 6.5 21 6.5C12.7157 6.5 6 13.2157 6 21.5C6 29.7843 12.7157 36.5 21 36.5Z" stroke="#50525B" stroke-width="2" stroke-miterlimit="10"/>
  <path d="M21 18.5C22.6569 18.5 24 17.1569 24 15.5C24 13.8431 22.6569 12.5 21 12.5C19.3431 12.5 18 13.8431 18 15.5C18 17.1569 19.3431 18.5 21 18.5Z" fill="#50525B" stroke="#50525B" stroke-width="2" stroke-miterlimit="10"/>
  <path d="M9 30.0103C11.9126 26.6387 16.2487 24.5 21.0921 24.5C25.9355 24.5 30.288 26.6456 33.2006 30.0288" fill="#50525B"/>
  <path d="M9 30.0103C11.9126 26.6387 16.2487 24.5 21.0921 24.5C25.9355 24.5 30.288 26.6456 33.2006 30.0288" stroke="#50525B" stroke-width="2" stroke-miterlimit="10"/>
</svg>