<svg width="112" height="112" viewBox="0 0 112 112" fill="none" xmlns="http://www.w3.org/2000/svg">
<g filter="url(#filter0_d_552_1628)">
<rect x="20" y="15" width="72" height="72" rx="36" fill="#E8E8E8" shape-rendering="crispEdges"/>
<rect x="15" y="10" width="82" height="82" rx="41" stroke="white" stroke-width="10" shape-rendering="crispEdges"/>
<path d="M48.3577 54.3846C50.4559 54.3846 52.1568 52.7351 52.1568 50.7004C52.1568 48.6656 50.4559 47.0161 48.3577 47.0161C46.2595 47.0161 44.5586 48.6656 44.5586 50.7004C44.5586 52.7351 46.2595 54.3846 48.3577 54.3846Z" stroke="#5B5B5B" stroke-width="3" stroke-miterlimit="10"/>
<path d="M48.358 57.6316C52.9696 57.6316 56.716 60.9249 56.716 64.984V65H40V64.984C40 60.9272 43.7438 57.6316 48.358 57.6316Z" stroke="#5B5B5B" stroke-width="3" stroke-miterlimit="10"/>
<path d="M50.6367 43.4732C51.1729 41.3776 52.5133 39.4763 54.5396 38.2602C58.6453 35.7924 64.0094 37.0607 66.5235 41.0883C69.0377 45.116 67.7456 50.3834 63.6423 52.8512C61.1474 54.3495 58.1889 54.4704 55.6868 53.432" stroke="#5B5B5B" stroke-width="3" stroke-miterlimit="10"/>
<path d="M72.001 62.6667L64.9766 52.5555" stroke="#5B5B5B" stroke-width="3" stroke-miterlimit="10"/>
</g>
<defs>
<filter id="filter0_d_552_1628" x="0" y="0" width="112" height="112" filterUnits="userSpaceOnUse" color-interpolation-filters="sRGB">
<feFlood flood-opacity="0" result="BackgroundImageFix"/>
<feColorMatrix in="SourceAlpha" type="matrix" values="0 0 0 0 0 0 0 0 0 0 0 0 0 0 0 0 0 0 127 0" result="hardAlpha"/>
<feOffset dy="5"/>
<feGaussianBlur stdDeviation="5"/>
<feComposite in2="hardAlpha" operator="out"/>
<feColorMatrix type="matrix" values="0 0 0 0 0 0 0 0 0 0 0 0 0 0 0 0 0 0 0.15 0"/>
<feBlend mode="normal" in2="BackgroundImageFix" result="effect1_dropShadow_552_1628"/>
<feBlend mode="normal" in="SourceGraphic" in2="effect1_dropShadow_552_1628" result="shape"/>
</filter>
</defs>
</svg>
